<svg xmlns="http://www.w3.org/2000/svg" xmlns:xlink="http://www.w3.org/1999/xlink" width="2000" zoomAndPan="magnify" viewBox="0 0 1500 1499.999933" height="2000" preserveAspectRatio="xMidYMid meet" version="1.0"><defs><g/><clipPath id="5c321ba336"><rect x="0" width="604" y="0" height="908"/></clipPath><clipPath id="2735f97fcb"><rect x="0" width="393" y="0" height="701"/></clipPath><clipPath id="afac8b96c6"><rect x="0" width="566" y="0" height="838"/></clipPath><clipPath id="8367102b31"><path d="M 538 40 L 1459 40 L 1459 712 L 538 712 Z M 538 40 " clip-rule="nonzero"/></clipPath><clipPath id="212f7f4131"><path d="M 1455.886719 712.828125 L 537.722656 73.191406 L 693.773438 -150.8125 L 1611.9375 488.828125 Z M 1455.886719 712.828125 " clip-rule="nonzero"/></clipPath><clipPath id="c0001cc97d"><path d="M 1455.886719 712.828125 L 537.722656 73.191406 L 693.773438 -150.8125 L 1611.9375 488.828125 Z M 1455.886719 712.828125 " clip-rule="nonzero"/></clipPath><clipPath id="f8883d6a9d"><path d="M 43 764 L 944 764 L 944 1459 L 43 1459 Z M 43 764 " clip-rule="nonzero"/></clipPath><clipPath id="69ddc4f38c"><path d="M 46.589844 763.867188 L 944.410156 1431.757812 L 781.464844 1650.796875 L -116.355469 982.90625 Z M 46.589844 763.867188 " clip-rule="nonzero"/></clipPath><clipPath id="0d13b18600"><path d="M 46.589844 763.867188 L 944.410156 1431.757812 L 781.464844 1650.796875 L -116.355469 982.90625 Z M 46.589844 763.867188 " clip-rule="nonzero"/></clipPath><clipPath id="2429681e4f"><rect x="0" width="352" y="0" height="333"/></clipPath><clipPath id="8eefa09039"><rect x="0" width="343" y="0" height="324"/></clipPath></defs><g transform="matrix(1, 0, 0, 1, 70, 38)"><g clip-path="url(#5c321ba336)"><g fill="#ffffff" fill-opacity="1"><g transform="translate(2.084751, 654.885647)"><g><path d="M 369.84375 -6.765625 C 381.5625 -6.765625 391.585938 -10.820312 399.921875 -18.9375 C 408.265625 -27.050781 412.660156 -36.96875 413.109375 -48.6875 L 413.109375 -223.796875 L 136.578125 -223.796875 L 136.578125 -49.359375 C 136.578125 -37.640625 140.859375 -27.609375 149.421875 -19.265625 C 157.984375 -10.929688 168.125 -6.765625 179.84375 -6.765625 L 188.640625 -6.765625 L 188.640625 0 L 40.5625 0 L 40.5625 -6.765625 L 49.359375 -6.765625 C 61.078125 -6.765625 71.101562 -10.929688 79.4375 -19.265625 C 87.78125 -27.609375 92.175781 -37.640625 92.625 -49.359375 L 92.625 -424.609375 C 92.175781 -436.328125 87.78125 -446.242188 79.4375 -454.359375 C 71.101562 -462.472656 61.078125 -466.53125 49.359375 -466.53125 L 40.5625 -466.53125 L 40.5625 -473.28125 L 188.640625 -473.28125 L 188.640625 -466.53125 L 179.84375 -466.53125 C 168.125 -466.53125 158.09375 -462.472656 149.75 -454.359375 C 141.414062 -446.242188 137.023438 -436.328125 136.578125 -424.609375 L 136.578125 -244.078125 L 413.109375 -244.078125 L 413.109375 -424.609375 C 412.660156 -440.835938 405.445312 -453.007812 391.46875 -461.125 C 384.707031 -464.726562 377.5 -466.53125 369.84375 -466.53125 L 361.046875 -466.53125 L 361.046875 -473.28125 L 509.125 -473.28125 L 509.125 -466.53125 L 500.328125 -466.53125 C 488.609375 -466.53125 478.578125 -462.359375 470.234375 -454.015625 C 461.898438 -445.679688 457.507812 -435.65625 457.0625 -423.9375 L 457.0625 -49.359375 C 457.507812 -37.640625 461.898438 -27.609375 470.234375 -19.265625 C 478.578125 -10.929688 488.609375 -6.765625 500.328125 -6.765625 L 509.125 -6.765625 L 509.125 0 L 361.046875 0 L 361.046875 -6.765625 Z M 369.84375 -6.765625 "/></g></g></g></g></g><g transform="matrix(1, 0, 0, 1, 567, 454)"><g clip-path="url(#2735f97fcb)"><g fill="#b53351" fill-opacity="1"><g transform="translate(4.371801, 504.919703)"><g><path d="M 327.59375 -195.921875 C 320.269531 -195.921875 315.128906 -194.09375 312.171875 -190.4375 C 309.210938 -186.78125 307.734375 -183.296875 307.734375 -179.984375 C 307.734375 -176.679688 308.515625 -171.195312 310.078125 -163.53125 C 311.648438 -155.863281 312.4375 -145.765625 312.4375 -133.234375 C 312.4375 -105.710938 305.992188 -80.632812 293.109375 -58 C 305.640625 -47.195312 315.5625 -38.921875 322.875 -33.171875 C 330.195312 -27.429688 339.78125 -21.507812 351.625 -15.40625 C 363.46875 -9.3125 374.4375 -5.914062 384.53125 -5.21875 L 384.53125 0 C 384.1875 0 381.3125 0 375.90625 0 C 370.507812 0 366.679688 0 364.421875 0 C 362.160156 0 357.976562 -0.171875 351.875 -0.515625 C 345.78125 -0.867188 340.816406 -1.476562 336.984375 -2.34375 C 333.160156 -3.21875 328.113281 -4.351562 321.84375 -5.75 C 315.570312 -7.144531 310 -9.0625 305.125 -11.5 C 292.582031 -17.070312 281.609375 -23.515625 272.203125 -30.828125 C 247.472656 -6.796875 215.253906 5.21875 175.546875 5.21875 C 124.691406 5.21875 85.332031 -5.398438 57.46875 -26.640625 C 29.601562 -47.890625 15.671875 -78.019531 15.671875 -117.03125 C 15.671875 -160.21875 36.742188 -192.4375 78.890625 -213.6875 C 65.648438 -234.9375 59.03125 -258.273438 59.03125 -283.703125 C 59.03125 -309.472656 68.4375 -330.71875 87.25 -347.4375 C 106.757812 -364.507812 132.363281 -373.046875 164.0625 -373.046875 C 181.820312 -373.046875 198.710938 -369.648438 214.734375 -362.859375 C 230.753906 -356.066406 243.46875 -347.097656 252.875 -335.953125 L 243.46875 -276.90625 L 238.25 -276.90625 C 238.25 -301.988281 231.457031 -321.671875 217.875 -335.953125 C 204.289062 -350.234375 186.960938 -357.375 165.890625 -357.375 C 144.816406 -357.375 127.75 -350.40625 114.6875 -336.46875 C 101.625 -322.539062 95.09375 -305.125 95.09375 -284.21875 C 95.09375 -263.320312 101.535156 -243.644531 114.421875 -225.1875 C 127.304688 -206.726562 152.554688 -180.773438 190.171875 -147.328125 C 227.796875 -113.890625 255.316406 -89.859375 272.734375 -75.234375 C 280.046875 -91.253906 283.703125 -107.796875 283.703125 -124.859375 C 283.703125 -141.929688 279.957031 -158.039062 272.46875 -173.1875 C 264.976562 -188.34375 253.921875 -195.921875 239.296875 -195.921875 L 231.453125 -195.921875 L 231.453125 -201.15625 L 335.421875 -201.15625 L 335.421875 -195.921875 Z M 254.4375 -45.984375 C 165.269531 -119.472656 109.539062 -171.195312 87.25 -201.15625 C 64.957031 -180.25 53.8125 -152.988281 53.8125 -119.375 C 53.8125 -85.769531 64.519531 -59.210938 85.9375 -39.703125 C 107.363281 -20.203125 137.234375 -10.453125 175.546875 -10.453125 C 207.585938 -10.453125 233.882812 -22.296875 254.4375 -45.984375 Z M 254.4375 -45.984375 "/></g></g></g></g></g><g transform="matrix(1, 0, 0, 1, 934, 662)"><g clip-path="url(#afac8b96c6)"><g fill="#ffffff" fill-opacity="1"><g transform="translate(4.694173, 654.82177)"><g><path d="M 281.9375 9.46875 C 210.71875 9.019531 152.679688 -13.738281 107.828125 -58.8125 C 62.984375 -103.894531 40.5625 -163.285156 40.5625 -236.984375 C 40.5625 -310.679688 62.984375 -370.066406 107.828125 -415.140625 C 152.679688 -460.210938 212.070312 -482.75 286 -482.75 C 346.40625 -482.75 399.820312 -467.425781 446.25 -436.78125 L 459.765625 -341.4375 L 453.6875 -341.4375 C 443.769531 -380.207031 423.707031 -410.070312 393.5 -431.03125 C 363.300781 -451.988281 327.46875 -462.46875 286 -462.46875 C 226.945312 -462.46875 179.726562 -441.957031 144.34375 -400.9375 C 108.96875 -359.925781 91.28125 -305.613281 91.28125 -238 C 91.28125 -170.382812 108.742188 -115.953125 143.671875 -74.703125 C 178.609375 -33.460938 224.695312 -12.164062 281.9375 -10.8125 C 332.425781 -10.8125 374.570312 -24.5625 408.375 -52.0625 C 444.882812 -81.8125 466.972656 -130.265625 474.640625 -197.421875 L 480.046875 -197.421875 L 471.9375 -91.28125 C 430.914062 -24.113281 367.582031 9.46875 281.9375 9.46875 Z M 281.9375 9.46875 "/></g></g></g></g></g><g clip-path="url(#8367102b31)"><g clip-path="url(#212f7f4131)"><g clip-path="url(#c0001cc97d)"><path fill="#b53351" d="M 1150.535156 171.429688 C 1156.023438 175.253906 1161.460938 179.152344 1166.84375 183.128906 C 1172.222656 187.105469 1177.550781 191.15625 1182.816406 195.28125 C 1188.085938 199.40625 1193.296875 203.605469 1198.445312 207.875 C 1203.597656 212.144531 1208.6875 216.488281 1213.71875 220.902344 C 1218.746094 225.3125 1223.714844 229.796875 1228.617188 234.347656 C 1233.523438 238.898438 1238.363281 243.519531 1243.136719 248.207031 C 1247.914062 252.894531 1252.621094 257.648438 1257.261719 262.464844 C 1261.90625 267.285156 1266.480469 272.167969 1270.984375 277.113281 C 1275.492188 282.0625 1279.925781 287.070312 1284.292969 292.140625 C 1288.65625 297.210938 1292.953125 302.34375 1297.171875 307.53125 C 1301.394531 312.722656 1305.542969 317.972656 1309.621094 323.277344 C 1313.695312 328.585938 1317.695312 333.949219 1321.621094 339.367188 C 1325.546875 344.785156 1329.394531 350.257812 1333.167969 355.785156 C 1336.941406 361.3125 1340.636719 366.890625 1344.25 372.519531 C 1347.867188 378.148438 1351.40625 383.828125 1354.863281 389.554688 C 1358.320312 395.285156 1361.699219 401.058594 1364.996094 406.882812 C 1368.289062 412.707031 1371.503906 418.574219 1374.636719 424.484375 C 1377.769531 430.398438 1380.816406 436.355469 1383.785156 442.351562 C 1386.75 448.351562 1389.632812 454.386719 1392.429688 460.46875 C 1395.226562 466.546875 1397.9375 472.660156 1400.5625 478.816406 C 1403.1875 484.96875 1405.726562 491.160156 1408.179688 497.386719 C 1410.632812 503.609375 1412.996094 509.871094 1415.277344 516.160156 C 1417.554688 522.453125 1419.742188 528.773438 1421.84375 535.128906 C 1423.945312 541.480469 1425.957031 547.859375 1427.878906 554.269531 C 1429.800781 560.679688 1431.636719 567.113281 1433.378906 573.574219 C 1435.121094 580.035156 1436.773438 586.515625 1438.335938 593.023438 C 1439.894531 599.53125 1441.367188 606.058594 1442.746094 612.605469 C 1444.125 619.152344 1445.410156 625.71875 1446.605469 632.300781 C 1447.800781 638.882812 1448.90625 645.484375 1449.914062 652.097656 C 1450.925781 658.710938 1451.84375 665.339844 1452.671875 671.980469 C 1453.496094 678.621094 1454.230469 685.269531 1454.867188 691.929688 C 1455.507812 698.589844 1456.054688 705.257812 1456.507812 711.933594 L 1458.707031 708.777344 C 1456.847656 683.808594 1453.71875 659 1449.320312 634.351562 C 1445.277344 611.515625 1440.140625 588.925781 1433.902344 566.589844 C 1427.667969 544.25 1420.367188 522.269531 1411.996094 500.640625 C 1403.625 479.011719 1394.230469 457.839844 1383.804688 437.121094 C 1373.378906 416.40625 1361.976562 396.242188 1349.59375 376.632812 C 1336.789062 356.285156 1322.996094 336.632812 1308.210938 317.675781 C 1293.425781 298.71875 1277.726562 280.554688 1261.113281 263.175781 C 1244.5 245.800781 1227.054688 229.304688 1208.78125 213.683594 C 1190.503906 198.066406 1171.492188 183.402344 1151.738281 169.699219 C 1132.046875 155.925781 1111.710938 143.179688 1090.734375 131.457031 C 1069.757812 119.734375 1048.246094 109.09375 1026.199219 99.535156 C 1004.152344 89.976562 981.679688 81.550781 958.785156 74.257812 C 935.886719 66.960938 912.683594 60.835938 889.171875 55.878906 C 866.484375 51.058594 843.621094 47.347656 820.574219 44.746094 C 797.527344 42.144531 774.410156 40.667969 751.222656 40.3125 C 728.035156 39.953125 704.882812 40.722656 681.765625 42.613281 C 658.652344 44.503906 635.683594 47.511719 612.863281 51.632812 C 588.371094 56.136719 564.183594 61.917969 540.300781 68.972656 L 538.101562 72.125 C 550.929688 68.351562 563.851562 64.941406 576.867188 61.890625 C 589.882812 58.835938 602.976562 56.152344 616.140625 53.832031 C 629.308594 51.511719 642.53125 49.5625 655.804688 47.980469 C 669.082031 46.398438 682.390625 45.1875 695.734375 44.351562 C 709.078125 43.511719 722.433594 43.050781 735.804688 42.957031 C 749.171875 42.867188 762.535156 43.148438 775.886719 43.804688 C 789.242188 44.457031 802.566406 45.484375 815.863281 46.886719 C 829.15625 48.285156 842.402344 50.054688 855.601562 52.195312 C 868.796875 54.335938 881.925781 56.839844 894.984375 59.714844 C 908.039062 62.589844 921.007812 65.824219 933.882812 69.421875 C 946.757812 73.019531 959.527344 76.972656 972.179688 81.285156 C 984.835938 85.597656 997.363281 90.257812 1009.757812 95.269531 C 1022.152344 100.277344 1034.398438 105.632812 1046.492188 111.328125 C 1058.589844 117.023438 1070.515625 123.050781 1082.273438 129.414062 C 1094.035156 135.773438 1105.605469 142.460938 1116.992188 149.46875 C 1128.375 156.476562 1139.558594 163.796875 1150.535156 171.429688 Z M 1150.535156 171.429688 " fill-opacity="1" fill-rule="nonzero"/></g></g></g><g clip-path="url(#f8883d6a9d)"><g clip-path="url(#69ddc4f38c)"><g clip-path="url(#0d13b18600)"><path fill="#b53351" d="M 334.949219 1314.503906 C 329.582031 1310.511719 324.269531 1306.441406 319.015625 1302.300781 C 313.757812 1298.160156 308.5625 1293.945312 303.425781 1289.65625 C 298.289062 1285.371094 293.210938 1281.011719 288.195312 1276.585938 C 283.179688 1272.15625 278.226562 1267.65625 273.335938 1263.089844 C 268.449219 1258.523438 263.621094 1253.886719 258.863281 1249.183594 C 254.101562 1244.484375 249.40625 1239.714844 244.78125 1234.882812 C 240.152344 1230.046875 235.59375 1225.152344 231.105469 1220.191406 C 226.617188 1215.230469 222.195312 1210.207031 217.847656 1205.121094 C 213.496094 1200.039062 209.21875 1194.894531 205.011719 1189.6875 C 200.808594 1184.484375 196.675781 1179.222656 192.617188 1173.902344 C 188.558594 1168.582031 184.574219 1163.207031 180.664062 1157.777344 C 176.757812 1152.347656 172.925781 1146.863281 169.171875 1141.324219 C 165.414062 1135.785156 161.738281 1130.195312 158.140625 1124.554688 C 154.542969 1118.914062 151.023438 1113.222656 147.582031 1107.484375 C 144.144531 1101.746094 140.785156 1095.957031 137.507812 1090.125 C 134.230469 1084.292969 131.03125 1078.414062 127.917969 1072.492188 C 124.804688 1066.570312 121.777344 1060.605469 118.828125 1054.597656 C 115.882812 1048.589844 113.019531 1042.542969 110.242188 1036.453125 C 107.464844 1030.367188 104.773438 1024.242188 102.167969 1018.078125 C 99.558594 1011.917969 97.039062 1005.71875 94.605469 999.484375 C 92.171875 993.253906 89.828125 986.988281 87.570312 980.6875 C 85.3125 974.390625 83.144531 968.0625 81.0625 961.703125 C 78.980469 955.34375 76.988281 948.957031 75.085938 942.539062 C 73.183594 936.125 71.371094 929.683594 69.648438 923.21875 C 67.925781 916.753906 66.296875 910.265625 64.753906 903.753906 C 63.214844 897.242188 61.765625 890.710938 60.40625 884.160156 C 59.046875 877.605469 57.78125 871.039062 56.605469 864.449219 C 55.433594 857.863281 54.351562 851.261719 53.359375 844.644531 C 52.371094 838.027344 51.472656 831.394531 50.667969 824.753906 C 49.863281 818.109375 49.152344 811.457031 48.53125 804.796875 C 47.914062 798.132812 47.386719 791.464844 46.957031 784.785156 C 46.523438 778.109375 46.183594 771.425781 45.941406 764.742188 L 43.644531 767.828125 C 44.726562 792.839844 47.082031 817.734375 50.710938 842.511719 C 54.039062 865.460938 58.476562 888.199219 64.011719 910.71875 C 69.550781 933.238281 76.164062 955.4375 83.855469 977.316406 C 91.550781 999.195312 100.285156 1020.652344 110.058594 1041.683594 C 119.835938 1062.714844 130.605469 1083.222656 142.371094 1103.207031 C 154.535156 1123.941406 167.714844 1144.011719 181.898438 1163.421875 C 196.085938 1182.828125 211.214844 1201.476562 227.277344 1219.359375 C 243.34375 1237.246094 260.265625 1254.277344 278.046875 1270.457031 C 295.828125 1286.636719 314.375 1301.882812 333.691406 1316.195312 C 352.945312 1330.570312 372.875 1343.945312 393.476562 1356.316406 C 414.078125 1368.6875 435.25 1379.992188 456.988281 1390.230469 C 478.726562 1400.46875 500.925781 1409.589844 523.585938 1417.59375 C 546.242188 1425.597656 569.246094 1432.441406 592.59375 1438.128906 C 615.117188 1443.652344 637.855469 1448.074219 660.808594 1451.390625 C 683.761719 1454.707031 706.824219 1456.902344 729.988281 1457.980469 C 753.15625 1459.058594 776.320312 1459.011719 799.484375 1457.839844 C 822.644531 1456.667969 845.695312 1454.378906 868.636719 1450.96875 C 893.253906 1447.226562 917.609375 1442.203125 941.699219 1435.894531 L 943.996094 1432.808594 C 931.058594 1436.183594 918.039062 1439.191406 904.933594 1441.835938 C 891.828125 1444.480469 878.65625 1446.757812 865.425781 1448.667969 C 852.191406 1450.578125 838.917969 1452.117188 825.597656 1453.285156 C 812.28125 1454.453125 798.941406 1455.246094 785.578125 1455.667969 C 772.214844 1456.089844 758.851562 1456.140625 745.484375 1455.816406 C 732.117188 1455.492188 718.773438 1454.792969 705.445312 1453.722656 C 692.121094 1452.652344 678.832031 1451.210938 665.585938 1449.398438 C 652.339844 1447.585938 639.15625 1445.40625 626.03125 1442.855469 C 612.90625 1440.304688 599.863281 1437.390625 586.902344 1434.113281 C 573.941406 1430.835938 561.082031 1427.199219 548.324219 1423.203125 C 535.566406 1419.203125 522.929688 1414.855469 510.414062 1410.152344 C 497.898438 1405.449219 485.523438 1400.402344 473.292969 1395.007812 C 461.058594 1389.613281 448.984375 1383.882812 437.074219 1377.8125 C 425.160156 1371.742188 413.425781 1365.347656 401.871094 1358.621094 C 390.316406 1351.898438 378.957031 1344.855469 367.792969 1337.496094 C 356.632812 1330.136719 345.683594 1322.472656 334.949219 1314.503906 Z M 334.949219 1314.503906 " fill-opacity="1" fill-rule="nonzero"/></g></g></g><g transform="matrix(1, 0, 0, 1, 960, 140)"><g clip-path="url(#2429681e4f)"><g fill="#ffffff" fill-opacity="1"><g transform="translate(37.639728, 90.133898)"><g><path d="M 43.125 22.921875 C 44.476562 23.679688 45.894531 23.859375 47.375 23.453125 C 48.863281 23.046875 50.007812 22.1875 50.8125 20.875 L 62.03125 0.65625 L 30.109375 -17.078125 L 18.921875 3.046875 C 18.179688 4.398438 18.035156 5.832031 18.484375 7.34375 C 18.941406 8.863281 19.847656 10 21.203125 10.75 L 22.203125 11.3125 L 21.765625 12.09375 L 4.6875 2.609375 L 5.125 1.828125 L 6.140625 2.375 C 7.492188 3.132812 8.914062 3.296875 10.40625 2.859375 C 11.90625 2.429688 13.050781 1.554688 13.84375 0.234375 L 37.90625 -43.078125 C 38.601562 -44.453125 38.734375 -45.875 38.296875 -47.34375 C 37.859375 -48.8125 36.960938 -49.925781 35.609375 -50.6875 L 34.59375 -51.234375 L 35.03125 -52.015625 L 52.109375 -42.53125 L 51.671875 -41.75 L 50.671875 -42.3125 C 49.316406 -43.0625 47.894531 -43.234375 46.40625 -42.828125 C 44.925781 -42.429688 43.785156 -41.578125 42.984375 -40.265625 L 31.40625 -19.421875 L 63.328125 -1.6875 L 74.90625 -22.53125 C 75.894531 -24.425781 75.84375 -26.289062 74.75 -28.125 C 74.195312 -28.976562 73.476562 -29.648438 72.59375 -30.140625 L 71.578125 -30.703125 L 72.015625 -31.484375 L 89.109375 -21.984375 L 88.671875 -21.203125 L 87.65625 -21.765625 C 86.300781 -22.515625 84.875 -22.675781 83.375 -22.25 C 81.882812 -21.832031 80.734375 -20.957031 79.921875 -19.625 L 55.90625 23.59375 C 55.21875 24.976562 55.085938 26.421875 55.515625 27.921875 C 55.941406 29.421875 56.832031 30.546875 58.1875 31.296875 L 59.203125 31.859375 L 58.765625 32.640625 L 41.671875 23.140625 L 42.109375 22.359375 Z M 43.125 22.921875 "/></g></g></g><g fill="#ffffff" fill-opacity="1"><g transform="translate(115.64181, 135.416748)"><g><path d="M 50.984375 38.5625 L 51.53125 39 L 50.984375 39.703125 L 35.15625 27.359375 L 35.703125 26.65625 L 36.328125 27.15625 C 37.316406 27.914062 38.300781 28.171875 39.28125 27.921875 C 40.269531 27.679688 40.984375 27.273438 41.421875 26.703125 C 41.859375 26.140625 42.207031 25.507812 42.46875 24.8125 L 47.28125 9.328125 L 28.265625 -5.484375 L 14.15625 2.890625 C 13.539062 3.296875 13.019531 3.769531 12.59375 4.3125 C 12.175781 4.863281 11.96875 5.644531 11.96875 6.65625 C 11.96875 7.675781 12.457031 8.570312 13.4375 9.34375 L 14.078125 9.828125 L 13.53125 10.53125 L -0.625 -0.484375 L -0.078125 -1.1875 L 0.546875 -0.703125 C 1.722656 0.210938 3.164062 0.734375 4.875 0.859375 C 6.582031 0.984375 8.359375 0.59375 10.203125 -0.3125 L 55.640625 -25.828125 C 60.328125 -28.265625 63.078125 -30.003906 63.890625 -31.046875 L 64.515625 -30.546875 L 48.234375 29.296875 C 47.753906 31.265625 47.785156 33.0625 48.328125 34.6875 C 48.867188 36.320312 49.753906 37.613281 50.984375 38.5625 Z M 30.75 -6.953125 L 48.078125 6.53125 L 57.234375 -22.640625 Z M 30.75 -6.953125 "/></g></g></g><g fill="#ffffff" fill-opacity="1"><g transform="translate(179.132784, 186.028217)"><g><path d="M 92.421875 8.59375 C 91.410156 7.507812 90.15625 6.929688 88.65625 6.859375 C 87.164062 6.785156 85.859375 7.238281 84.734375 8.21875 L 51.109375 39.703125 C 48.597656 42.054688 46.351562 44.441406 44.375 46.859375 L 43.328125 48.09375 L 42.78125 47.515625 L 47.453125 -23.515625 L 15 6.875 C 13.519531 8.332031 13.019531 10.0625 13.5 12.0625 C 13.71875 13 14.15625 13.8125 14.8125 14.5 L 15.96875 15.75 L 15.3125 16.359375 L 2.75 2.9375 L 3.40625 2.328125 L 4.5625 3.5625 C 5.570312 4.644531 6.820312 5.21875 8.3125 5.28125 C 9.8125 5.351562 11.125 4.859375 12.25 3.796875 L 46.078125 -27.859375 C 48.722656 -30.335938 50.945312 -32.703125 52.75 -34.953125 L 53.671875 -36.0625 L 54.28125 -35.40625 L 49.609375 35.609375 L 81.921875 5.34375 C 83.015625 4.238281 83.570312 2.941406 83.59375 1.453125 C 83.625 -0.0351562 83.128906 -1.328125 82.109375 -2.421875 L 80.953125 -3.640625 L 81.609375 -4.25 L 94.1875 9.171875 L 93.53125 9.78125 Z M 92.421875 8.59375 "/></g></g></g><g fill="#ffffff" fill-opacity="1"><g transform="translate(240.911087, 255.452995)"><g><path d="M 6.125 2.328125 C 6.707031 1.703125 7.96875 0.707031 9.90625 -0.65625 C 11.851562 -2.03125 14.175781 -3.125 16.875 -3.9375 L 17.34375 -3.296875 C 16.78125 -2.953125 16.234375 -2.597656 15.703125 -2.234375 C 12.734375 -0.128906 10.894531 2.515625 10.1875 5.703125 C 9.488281 8.898438 10.179688 11.976562 12.265625 14.9375 C 14.429688 18.007812 17.132812 19.875 20.375 20.53125 C 23.625 21.195312 26.644531 20.539062 29.4375 18.5625 C 32.238281 16.59375 33.835938 14.046875 34.234375 10.921875 L 37.34375 -12.25 C 37.925781 -16.59375 39.941406 -19.984375 43.390625 -22.421875 C 46.847656 -24.859375 50.617188 -25.785156 54.703125 -25.203125 C 58.785156 -24.628906 62.21875 -22.367188 65 -18.421875 C 66.300781 -16.578125 67.535156 -14.316406 68.703125 -11.640625 L 70.703125 -8.796875 L 61.71875 -2.46875 L 61.265625 -3.109375 C 63.554688 -4.722656 64.820312 -6.800781 65.0625 -9.34375 C 65.300781 -11.894531 64.546875 -14.410156 62.796875 -16.890625 C 61.054688 -19.367188 58.765625 -20.863281 55.921875 -21.375 C 53.085938 -21.882812 50.425781 -21.265625 47.9375 -19.515625 C 45.457031 -17.765625 44.007812 -15.285156 43.59375 -12.078125 L 40.453125 11.671875 C 39.941406 15.671875 37.738281 19.039062 33.84375 21.78125 C 29.945312 24.53125 25.867188 25.546875 21.609375 24.828125 C 17.359375 24.117188 13.78125 21.703125 10.875 17.578125 C 9.363281 15.429688 8.082031 12.921875 7.03125 10.046875 C 5.988281 7.179688 5.6875 4.609375 6.125 2.328125 Z M 6.125 2.328125 "/></g></g></g></g></g><g transform="matrix(1, 0, 0, 1, 208, 1032)"><g clip-path="url(#8eefa09039)"><g fill="#ffffff" fill-opacity="1"><g transform="translate(43.939884, 66.660949)"><g><path d="M 21.25 30.578125 C 15.6875 23.003906 13.515625 15.066406 14.734375 6.765625 C 15.960938 -1.535156 20.472656 -8.59375 28.265625 -14.40625 C 36.066406 -20.226562 44.125 -22.546875 52.4375 -21.359375 C 60.75 -20.171875 67.820312 -15.664062 73.65625 -7.84375 C 78.425781 -1.457031 81.023438 5.398438 81.453125 12.734375 L 72.421875 21.703125 L 71.9375 21.046875 C 75.257812 16.941406 76.835938 12.460938 76.671875 7.609375 C 76.503906 2.753906 74.785156 -1.863281 71.515625 -6.25 C 66.847656 -12.5 60.945312 -15.875 53.8125 -16.375 C 46.6875 -16.882812 39.546875 -14.46875 32.390625 -9.125 C 25.234375 -3.789062 20.851562 2.347656 19.25 9.296875 C 17.644531 16.253906 19.023438 22.816406 23.390625 28.984375 C 27.378906 34.328125 32.171875 37.703125 37.765625 39.109375 C 43.785156 40.609375 50.65625 39.125 58.375 34.65625 L 58.796875 35.21875 L 46.921875 42.734375 C 36.578125 43.703125 28.019531 39.648438 21.25 30.578125 Z M 21.25 30.578125 "/></g></g></g><g fill="#ffffff" fill-opacity="1"><g transform="translate(99.991001, 138.366287)"><g><path d="M 36.90625 36.8125 L 3.796875 3.78125 L 4.359375 3.21875 L 72.625 -12.15625 L 51.328125 -33.390625 C 50.234375 -34.398438 48.972656 -34.898438 47.546875 -34.890625 C 46.117188 -34.890625 44.878906 -34.363281 43.828125 -33.3125 L 42.703125 -32.1875 L 42.0625 -32.8125 L 50 -40.765625 C 50.375 -39.890625 51.238281 -38.523438 52.59375 -36.671875 C 53.945312 -34.816406 54.945312 -33.5625 55.59375 -32.90625 C 56.25 -32.257812 56.578125 -31.9375 56.578125 -31.9375 L 74.140625 -14.421875 C 76.203125 -12.359375 77.898438 -10.894531 79.234375 -10.03125 C 80.566406 -9.175781 81.378906 -8.6875 81.671875 -8.5625 L 81.109375 -8 L 11.5 7.6875 L 31.59375 27.734375 C 33.820312 29.960938 36.363281 31.070312 39.21875 31.0625 C 42.082031 31.0625 45.03125 30.21875 48.0625 28.53125 L 48.703125 29.15625 Z M 36.90625 36.8125 "/></g></g></g><g fill="#ffffff" fill-opacity="1"><g transform="translate(158.524474, 194.710467)"><g><path d="M 51.71875 37.578125 L 52.28125 38 L 51.75 38.71875 L 35.671875 26.6875 L 36.203125 25.96875 L 36.84375 26.4375 C 37.84375 27.1875 38.832031 27.425781 39.8125 27.15625 C 40.789062 26.894531 41.492188 26.476562 41.921875 25.90625 C 42.347656 25.332031 42.6875 24.691406 42.9375 23.984375 L 47.4375 8.421875 L 28.140625 -6.03125 L 14.21875 2.625 C 13.59375 3.039062 13.070312 3.523438 12.65625 4.078125 C 12.25 4.628906 12.054688 5.410156 12.078125 6.421875 C 12.097656 7.441406 12.613281 8.328125 13.625 9.078125 L 14.25 9.546875 L 13.71875 10.265625 L -0.640625 -0.484375 L -0.109375 -1.203125 L 0.53125 -0.71875 C 1.726562 0.175781 3.179688 0.671875 4.890625 0.765625 C 6.609375 0.859375 8.378906 0.429688 10.203125 -0.515625 L 55.109375 -26.875 C 59.765625 -29.40625 62.484375 -31.195312 63.265625 -32.25 L 63.90625 -31.78125 L 48.796875 28.359375 C 48.359375 30.335938 48.421875 32.132812 48.984375 33.75 C 49.554688 35.363281 50.46875 36.640625 51.71875 37.578125 Z M 30.609375 -7.53125 L 48.1875 5.609375 L 56.78125 -23.75 Z M 30.609375 -7.53125 "/></g></g></g><g fill="#ffffff" fill-opacity="1"><g transform="translate(229.000556, 245.179171)"><g><path d="M 82.25 -25.28125 L 81.15625 -25.875 C 79.59375 -26.726562 77.878906 -27.097656 76.015625 -26.984375 C 74.160156 -26.878906 72.40625 -26.441406 70.75 -25.671875 L 41.640625 -9 L 31.421875 9.71875 C 30.679688 11.070312 30.523438 12.492188 30.953125 13.984375 C 31.390625 15.484375 32.3125 16.617188 33.71875 17.390625 L 34.671875 17.90625 L 34.25 18.6875 L 17.15625 9.359375 L 17.578125 8.578125 L 18.609375 9.140625 C 19.960938 9.878906 21.378906 10.039062 22.859375 9.625 C 24.347656 9.21875 25.484375 8.347656 26.265625 7.015625 L 36.578125 -11.859375 L 35.265625 -45.046875 C 35.160156 -46.722656 34.632812 -48.394531 33.6875 -50.0625 C 32.738281 -51.726562 31.476562 -52.988281 29.90625 -53.84375 L 28.8125 -54.4375 L 29.234375 -55.21875 L 48.5 -44.703125 L 48.078125 -43.921875 L 47.078125 -44.484375 C 45.921875 -45.109375 44.742188 -45.070312 43.546875 -44.375 C 42.921875 -43.96875 42.457031 -43.488281 42.15625 -42.9375 C 41.851562 -42.382812 41.691406 -41.78125 41.671875 -41.125 L 41.4375 -12.765625 L 65.984375 -27.9375 C 66.546875 -28.320312 66.96875 -28.773438 67.25 -29.296875 C 67.539062 -29.816406 67.660156 -30.460938 67.609375 -31.234375 C 67.546875 -32.617188 66.941406 -33.628906 65.796875 -34.265625 L 64.859375 -34.765625 L 65.28125 -35.546875 L 82.671875 -26.0625 Z M 82.25 -25.28125 "/></g></g></g></g></g></svg>